<svg width="29" height="28" viewBox="0 0 29 28" fill="none" xmlns="http://www.w3.org/2000/svg">
<path fill-rule="evenodd" clip-rule="evenodd" d="M29 25.6674V27.9909H14.5V28H0V25.6765C0 24.6196 0.330404 23.6811 0.991211 22.861C1.63314 22.041 2.45443 21.4852 3.45508 21.1936C3.68164 21.1025 3.94596 21.0114 4.24805 20.9203C4.53125 20.8292 4.87109 20.7289 5.26758 20.6196C5.36198 20.6014 5.47526 20.574 5.60742 20.5376C5.73958 20.5011 5.91894 20.4465 6.14551 20.3736C6.31543 20.3371 6.47591 20.3007 6.62695 20.2642C6.75911 20.2096 6.89128 20.164 7.02344 20.1276C8.28841 19.7631 9.24186 19.344 9.88379 18.8702C10.5257 18.3964 10.9222 17.7859 11.0732 17.0387C10.5068 16.4738 9.98763 15.7995 9.51562 15.0159C9.04362 14.2323 8.64713 13.3941 8.32617 12.5011C7.98633 11.6082 7.722 10.697 7.5332 9.76766C7.3444 8.82005 7.25 7.89977 7.25 7.00684C7.25 5.73121 7.4388 4.64693 7.81641 3.75399C8.19401 2.86105 8.71322 2.14123 9.37402 1.59454C10.0348 1.02962 10.7995 0.628704 11.668 0.391802C12.5553 0.136677 13.4993 0.00911458 14.5 0.00911458V0C15.5007 0 16.4447 0.127563 17.332 0.382688C18.2005 0.61959 18.9652 1.0205 19.626 1.58542C20.2868 2.13212 20.806 2.85194 21.1836 3.74487C21.5612 4.63781 21.75 5.72209 21.75 6.99772C21.75 7.89066 21.6556 8.81093 21.4668 9.75854C21.278 10.6879 21.0137 11.5991 20.6738 12.492C20.3529 13.385 19.9564 14.2232 19.4844 15.0068C19.0124 15.7904 18.4932 16.4647 17.9268 17.0296C18.0778 17.7768 18.4743 18.3872 19.1162 18.861C19.7581 19.3348 20.7116 19.754 21.9766 20.1184C22.1087 20.1549 22.2409 20.2005 22.373 20.2551C22.5241 20.2916 22.6846 20.328 22.8545 20.3645C23.0811 20.4374 23.2604 20.492 23.3926 20.5285C23.5247 20.5649 23.638 20.5923 23.7324 20.6105C24.1289 20.7198 24.4687 20.82 24.752 20.9112C25.054 21.0023 25.3184 21.0934 25.5449 21.1845C26.5456 21.4761 27.3669 22.0319 28.0088 22.8519C28.6696 23.672 29 24.6105 29 25.6674ZM14.5 2.3508V2.35991C12.8763 2.35991 11.668 2.72438 10.875 3.45331C10.0632 4.16401 9.65723 5.34852 9.65723 7.00684C9.65723 7.77221 9.74219 8.55581 9.91211 9.35763C10.0632 10.1595 10.2803 10.9339 10.5635 11.6811C10.8467 12.4282 11.1771 13.1207 11.5547 13.7585C11.9323 14.4146 12.3477 14.9613 12.8008 15.3986L13.6504 16.246L13.4521 17.4214C13.2256 18.697 12.6403 19.7175 11.6963 20.4829C10.7523 21.2301 9.43066 21.8588 7.73144 22.369C7.5804 22.4055 7.4388 22.451 7.30664 22.5057C7.1556 22.5421 6.98568 22.5786 6.79687 22.615C6.51367 22.7061 6.32487 22.7699 6.23047 22.8064C6.11719 22.8246 6.01335 22.8428 5.91894 22.861C5.56022 22.9704 5.25814 23.0615 5.01269 23.1344C4.76725 23.2073 4.55957 23.2802 4.38965 23.3531L4.13477 23.4351C3.625 23.5809 3.20964 23.8633 2.88867 24.2825C2.56771 24.7016 2.40723 25.1663 2.40723 25.6765H14.5V25.6674H26.5928C26.5928 25.1572 26.4323 24.6925 26.1113 24.2733C25.7904 23.8542 25.375 23.5718 24.8652 23.426L24.6103 23.344C24.4404 23.2711 24.2327 23.1982 23.9873 23.1253C23.7419 23.0524 23.4398 22.9613 23.0811 22.8519C22.9867 22.8337 22.8828 22.8155 22.7695 22.7973C22.6751 22.7608 22.4863 22.697 22.2031 22.6059C22.0143 22.5695 21.8444 22.533 21.6934 22.4966C21.5612 22.4419 21.4196 22.3964 21.2686 22.3599C19.5693 21.8497 18.2477 21.221 17.3037 20.4738C16.3597 19.7084 15.7744 18.6879 15.5479 17.4123L15.3496 16.2369L16.1992 15.3895C16.6523 14.9522 17.0677 14.4055 17.4453 13.7494C17.8229 13.1116 18.1533 12.4191 18.4365 11.672C18.7197 10.9248 18.9368 10.1503 19.0879 9.34852C19.2578 8.5467 19.3428 7.7631 19.3428 6.99772C19.3428 5.33941 18.9368 4.1549 18.125 3.44419C17.332 2.71526 16.1237 2.3508 14.5 2.3508Z" fill="#F8FAFF"/>
</svg>
