<svg width="34" height="31" viewBox="0 0 34 31" fill="none" xmlns="http://www.w3.org/2000/svg">
<path d="M23.451 29.9997L23.4514 24.5627C23.4517 21.5595 21.0806 19.1248 18.1556 19.1248H6.29648C3.37188 19.1248 1.00092 21.5589 1.0006 24.5616L1 29.9997M32.6359 30L32.6364 24.563C32.6366 21.5598 30.2655 19.1251 27.3405 19.1251M22.4309 2.0682C23.7314 3.05896 24.5743 4.64729 24.5743 6.43774C24.5743 8.22819 23.7314 9.81652 22.4309 10.8073M17.6318 6.43744C17.6318 9.44046 15.2608 11.8749 12.3359 11.8749C9.4111 11.8749 7.04005 9.44046 7.04005 6.43744C7.04005 3.43443 9.4111 1 12.3359 1C15.2608 1 17.6318 3.43443 17.6318 6.43744Z" stroke="white" stroke-width="2" stroke-linecap="round" stroke-linejoin="round"/>
</svg>
