<svg width="31" height="31" viewBox="0 0 31 31" fill="none" xmlns="http://www.w3.org/2000/svg">
<path d="M2.10539 26.5741C1.71487 26.9647 1.71487 27.5978 2.10539 27.9884C2.49592 28.3789 3.12908 28.3789 3.51961 27.9884L2.10539 26.5741ZM10.0625 20.0312L10.7696 19.3241C10.3791 18.9336 9.74592 18.9336 9.35539 19.3241L10.0625 20.0312ZM13.6875 23.6562L12.9804 24.3634C13.3709 24.7539 14.0041 24.7539 14.3946 24.3634L13.6875 23.6562ZM21.8438 15.5L22.5509 14.7929C22.1603 14.4024 21.5272 14.4024 21.1366 14.7929L21.8438 15.5ZM28.3866 23.4571C28.7772 23.8476 29.4103 23.8476 29.8009 23.4571C30.1914 23.0666 30.1914 22.4334 29.8009 22.0429L28.3866 23.4571ZM3.51961 27.9884L10.7696 20.7384L9.35539 19.3241L2.10539 26.5741L3.51961 27.9884ZM9.35539 20.7384L12.9804 24.3634L14.3946 22.9491L10.7696 19.3241L9.35539 20.7384ZM14.3946 24.3634L22.5509 16.2071L21.1366 14.7929L12.9804 22.9491L14.3946 24.3634ZM21.1366 16.2071L28.3866 23.4571L29.8009 22.0429L22.5509 14.7929L21.1366 16.2071ZM6.4375 2H24.5625V0H6.4375V2ZM29 6.4375V24.5625H31V6.4375H29ZM24.5625 29H6.4375V31H24.5625V29ZM2 24.5625V6.4375H0V24.5625H2ZM6.4375 29C3.98674 29 2 27.0133 2 24.5625H0C0 28.1178 2.88217 31 6.4375 31V29ZM29 24.5625C29 27.0133 27.0133 29 24.5625 29V31C28.1178 31 31 28.1178 31 24.5625H29ZM24.5625 2C27.0133 2 29 3.98674 29 6.4375H31C31 2.88217 28.1178 0 24.5625 0V2ZM6.4375 0C2.88217 0 0 2.88217 0 6.4375H2C2 3.98674 3.98674 2 6.4375 2V0ZM10.875 9.15625C10.875 10.1055 10.1055 10.875 9.15625 10.875V12.875C11.2101 12.875 12.875 11.2101 12.875 9.15625H10.875ZM9.15625 10.875C8.20701 10.875 7.4375 10.1055 7.4375 9.15625H5.4375C5.4375 11.2101 7.10244 12.875 9.15625 12.875V10.875ZM7.4375 9.15625C7.4375 8.20701 8.20701 7.4375 9.15625 7.4375V5.4375C7.10244 5.4375 5.4375 7.10244 5.4375 9.15625H7.4375ZM9.15625 7.4375C10.1055 7.4375 10.875 8.20701 10.875 9.15625H12.875C12.875 7.10244 11.2101 5.4375 9.15625 5.4375V7.4375Z" fill="white"/>
</svg>
