<svg width="31" height="31" viewBox="0 0 31 31" fill="none" xmlns="http://www.w3.org/2000/svg">
<path d="M1 0C0.447715 0 0 0.447715 0 1C0 1.55228 0.447715 2 1 2V0ZM4.46269 1L5.42857 0.741032C5.31138 0.303922 4.91523 0 4.46269 0V1ZM10.0896 21.9868L9.12367 22.2458C9.25309 22.7285 9.719 23.0415 10.2148 22.9789L10.0896 21.9868ZM27.403 19.8007L27.5283 20.7928C27.9531 20.7391 28.2967 20.4209 28.3826 20.0013L27.403 19.8007ZM30 7.12115L30.9797 7.3218C31.0399 7.02751 30.9647 6.7217 30.7748 6.48895C30.5849 6.25619 30.3004 6.12115 30 6.12115V7.12115ZM6.10386 7.12115L5.13797 7.38011V7.38012L6.10386 7.12115ZM1 2H4.46269V0H1V2ZM10.2148 22.9789L27.5283 20.7928L27.2777 18.8085L9.96428 20.9947L10.2148 22.9789ZM28.3826 20.0013L30.9797 7.3218L29.0203 6.92049L26.4233 19.6L28.3826 20.0013ZM3.4968 1.25897L5.13797 7.38011L7.06974 6.86218L5.42857 0.741032L3.4968 1.25897ZM5.13797 7.38012L9.12367 22.2458L11.0554 21.7278L7.06974 6.86218L5.13797 7.38012ZM30 6.12115H6.10386V8.12115H30V6.12115ZM14.5 27.7114C14.5 28.4326 13.9239 29 13.2344 29V31C15.0474 31 16.5 29.5181 16.5 27.7114H14.5ZM13.2344 29C12.5449 29 11.9688 28.4326 11.9688 27.7114H9.96875C9.96875 29.5181 11.4213 31 13.2344 31V29ZM11.9688 27.7114C11.9688 26.9902 12.5449 26.4228 13.2344 26.4228V24.4228C11.4213 24.4228 9.96875 25.9047 9.96875 27.7114H11.9688ZM13.2344 26.4228C13.9239 26.4228 14.5 26.9902 14.5 27.7114H16.5C16.5 25.9047 15.0474 24.4228 13.2344 24.4228V26.4228ZM26.5833 27.7114C26.5833 28.4326 26.0072 29 25.3177 29V31C27.1308 31 28.5833 29.5181 28.5833 27.7114H26.5833ZM25.3177 29C24.6282 29 24.0521 28.4326 24.0521 27.7114H22.0521C22.0521 29.5181 23.5047 31 25.3177 31V29ZM24.0521 27.7114C24.0521 26.9902 24.6282 26.4228 25.3177 26.4228V24.4228C23.5047 24.4228 22.0521 25.9047 22.0521 27.7114H24.0521ZM25.3177 26.4228C26.0072 26.4228 26.5833 26.9902 26.5833 27.7114H28.5833C28.5833 25.9047 27.1308 24.4228 25.3177 24.4228V26.4228Z" fill="white"/>
</svg>
